# Wavefront OBJ file automatically generated by Tiled2Unity

# Vertices (Count = 50)
v 0 -2 0
v -1 -2 0
v -1 -1 0
v 0 -1 0
v -2 -2 0
v -2 -1 0
v -6 -2 0
v -7 -2 0
v -7 -1 0
v -6 -1 0
v -13 -4 0
v -14 -4 0
v -14 -3 0
v -13 -3 0
v -15 -4 0
v -15 -3 0
v 0 -10 0
v -1 -10 0
v -1 -9 0
v 0 -9 0
v -2 -10 0
v -2 -9 0
v -3 -10 0
v -3 -9 0
v -4 -10 0
v -4 -9 0
v -5 -10 0
v -5 -9 0
v -6 -10 0
v -6 -9 0
v -7 -10 0
v -7 -9 0
v -8 -10 0
v -8 -9 0
v -9 -10 0
v -9 -9 0
v -10 -10 0
v -10 -9 0
v -11 -10 0
v -11 -9 0
v -12 -10 0
v -12 -9 0
v -13 -10 0
v -13 -9 0
v -14 -10 0
v -14 -9 0
v -15 -10 0
v -15 -9 0
v -1 0 0
v 0 0 0

# Texture cooridinates (Count = 28)
vt 0.2001221 0.8001221
vt 0.3998779 0.8001221
vt 0.3998779 0.9998779
vt 0.2001221 0.9998779
vt 0.2001221 0.2001221
vt 0.3998779 0.2001221
vt 0.3998779 0.3998779
vt 0.2001221 0.3998779
vt 0.0001220703 0.0001220703
vt 0.1998779 0.0001220703
vt 0.1998779 0.1998779
vt 0.0001220703 0.1998779
vt 0.4001221 0.0001220703
vt 0.599878 0.0001220703
vt 0.599878 0.1998779
vt 0.4001221 0.1998779
vt 0.4001221 0.2001221
vt 0.599878 0.2001221
vt 0.599878 0.3998779
vt 0.4001221 0.3998779
vt 0.6001221 0.400122
vt 0.7998779 0.400122
vt 0.7998779 0.599878
vt 0.6001221 0.599878
vt 0.8001221 0.400122
vt 0.9998779 0.400122
vt 0.9998779 0.599878
vt 0.8001221 0.599878

# Normal
vn 0 0 -1

# Groups (Count = 7)

g mesh_0001
f 1/1/1 2/2/1 3/3/1 4/4/1
f 2/1/1 5/2/1 6/3/1 3/4/1
f 7/1/1 8/2/1 9/3/1 10/4/1
f 11/1/1 12/2/1 13/3/1 14/4/1
f 12/1/1 15/2/1 16/3/1 13/4/1
f 17/1/1 18/2/1 19/3/1 20/4/1
f 18/1/1 21/2/1 22/3/1 19/4/1
f 21/1/1 23/2/1 24/3/1 22/4/1
f 23/1/1 25/2/1 26/3/1 24/4/1
f 25/1/1 27/2/1 28/3/1 26/4/1
f 27/1/1 29/2/1 30/3/1 28/4/1
f 29/1/1 31/2/1 32/3/1 30/4/1
f 31/1/1 33/2/1 34/3/1 32/4/1
f 33/1/1 35/2/1 36/3/1 34/4/1
f 35/1/1 37/2/1 38/3/1 36/4/1
f 37/1/1 39/2/1 40/3/1 38/4/1
f 39/1/1 41/2/1 42/3/1 40/4/1
f 41/1/1 43/2/1 44/3/1 42/4/1
f 43/1/1 45/2/1 46/3/1 44/4/1
f 45/1/1 47/2/1 48/3/1 46/4/1

g mesh_tile_0017
f 4/5/1 3/6/1 49/7/1 50/8/1

g mesh_tile_0021
f 4/9/1 3/10/1 49/11/1 50/12/1

g mesh_tile_0023
f 4/13/1 3/14/1 49/15/1 50/16/1

g mesh_tile_0018
f 4/17/1 3/18/1 49/19/1 50/20/1

g mesh_tile_0014
f 4/21/1 3/22/1 49/23/1 50/24/1

g mesh_tile_0015
f 4/25/1 3/26/1 49/27/1 50/28/1

