# Wavefront OBJ file automatically generated by Tiled2Unity

# Vertices (Count = 131)
v 0 -1 0
v -1 -1 0
v -1 0 0
v 0 0 0
v -2 -1 0
v -2 0 0
v -3 -1 0
v -3 0 0
v -4 -1 0
v -4 0 0
v -5 -1 0
v -5 0 0
v -6 -1 0
v -6 0 0
v -7 -1 0
v -7 0 0
v -8 -1 0
v -8 0 0
v -9 -1 0
v -9 0 0
v -10 -1 0
v -10 0 0
v -11 -1 0
v -11 0 0
v -12 -1 0
v -12 0 0
v -13 -1 0
v -13 0 0
v -14 -1 0
v -14 0 0
v -15 -1 0
v -15 0 0
v 0 -2 0
v -1 -2 0
v -14 -2 0
v -15 -2 0
v 0 -3 0
v -1 -3 0
v -14 -3 0
v -15 -3 0
v 0 -4 0
v -1 -4 0
v -2 -4 0
v -2 -3 0
v -12 -4 0
v -13 -4 0
v -13 -3 0
v -12 -3 0
v -14 -4 0
v -15 -4 0
v 0 -5 0
v -1 -5 0
v -14 -5 0
v -15 -5 0
v 0 -6 0
v -1 -6 0
v -14 -6 0
v -15 -6 0
v 0 -7 0
v -1 -7 0
v -2 -7 0
v -2 -6 0
v -3 -7 0
v -3 -6 0
v -4 -7 0
v -4 -6 0
v -5 -7 0
v -5 -6 0
v -9 -7 0
v -10 -7 0
v -10 -6 0
v -9 -6 0
v -11 -7 0
v -11 -6 0
v -12 -7 0
v -12 -6 0
v -13 -7 0
v -13 -6 0
v -14 -7 0
v -15 -7 0
v 0 -8 0
v -1 -8 0
v -2 -8 0
v -3 -8 0
v -4 -8 0
v -5 -8 0
v -6 -8 0
v -7 -8 0
v -7 -7 0
v -6 -7 0
v -8 -8 0
v -8 -7 0
v -9 -8 0
v -10 -8 0
v -11 -8 0
v -12 -8 0
v -13 -8 0
v -14 -8 0
v -15 -8 0
v 0 -9 0
v -1 -9 0
v -2 -9 0
v -3 -9 0
v -4 -9 0
v -5 -9 0
v -6 -9 0
v -7 -9 0
v -8 -9 0
v -9 -9 0
v -10 -9 0
v -11 -9 0
v -12 -9 0
v -13 -9 0
v -14 -9 0
v -15 -9 0
v 0 -10 0
v -1 -10 0
v -2 -10 0
v -3 -10 0
v -4 -10 0
v -5 -10 0
v -6 -10 0
v -7 -10 0
v -8 -10 0
v -9 -10 0
v -10 -10 0
v -11 -10 0
v -12 -10 0
v -13 -10 0
v -14 -10 0
v -15 -10 0

# Texture cooridinates (Count = 48)
vt 0.2001221 0.6001221
vt 0.3998779 0.6001221
vt 0.3998779 0.7998779
vt 0.2001221 0.7998779
vt 0.4001221 0.6001221
vt 0.599878 0.6001221
vt 0.599878 0.7998779
vt 0.4001221 0.7998779
vt 0.0001220703 0.8001221
vt 0.1998779 0.8001221
vt 0.1998779 0.9998779
vt 0.0001220703 0.9998779
vt 0.2001221 0.8001221
vt 0.3998779 0.8001221
vt 0.3998779 0.9998779
vt 0.2001221 0.9998779
vt 0.6001221 0.8001221
vt 0.7998779 0.8001221
vt 0.7998779 0.9998779
vt 0.6001221 0.9998779
vt 0.2001221 0.400122
vt 0.3998779 0.400122
vt 0.3998779 0.599878
vt 0.2001221 0.599878
vt 0.4001221 0.400122
vt 0.599878 0.400122
vt 0.599878 0.599878
vt 0.4001221 0.599878
vt 0.4001221 0.2001221
vt 0.599878 0.2001221
vt 0.599878 0.3998779
vt 0.4001221 0.3998779
vt 0.2001221 0.2001221
vt 0.3998779 0.2001221
vt 0.3998779 0.3998779
vt 0.2001221 0.3998779
vt 0.0001220703 0.0001220703
vt 0.1998779 0.0001220703
vt 0.1998779 0.1998779
vt 0.0001220703 0.1998779
vt 0.6001221 0.400122
vt 0.7998779 0.400122
vt 0.7998779 0.599878
vt 0.6001221 0.599878
vt 0.4001221 0.0001220703
vt 0.599878 0.0001220703
vt 0.599878 0.1998779
vt 0.4001221 0.1998779

# Normal
vn 0 0 -1

# Groups (Count = 6)

g mesh_0001
f 1/1/1 2/2/1 3/3/1 4/4/1
f 2/1/1 5/2/1 6/3/1 3/4/1
f 5/1/1 7/2/1 8/3/1 6/4/1
f 7/1/1 9/2/1 10/3/1 8/4/1
f 9/1/1 11/2/1 12/3/1 10/4/1
f 11/1/1 13/2/1 14/3/1 12/4/1
f 13/1/1 15/2/1 16/3/1 14/4/1
f 15/1/1 17/2/1 18/3/1 16/4/1
f 17/1/1 19/2/1 20/3/1 18/4/1
f 19/1/1 21/2/1 22/3/1 20/4/1
f 21/1/1 23/2/1 24/3/1 22/4/1
f 23/1/1 25/2/1 26/3/1 24/4/1
f 25/1/1 27/2/1 28/3/1 26/4/1
f 27/1/1 29/2/1 30/3/1 28/4/1
f 29/1/1 31/2/1 32/3/1 30/4/1
f 33/1/1 34/2/1 2/3/1 1/4/1
f 35/1/1 36/2/1 31/3/1 29/4/1
f 37/1/1 38/2/1 34/3/1 33/4/1
f 39/1/1 40/2/1 36/3/1 35/4/1
f 41/1/1 42/2/1 38/3/1 37/4/1
f 42/1/1 43/2/1 44/3/1 38/4/1
f 45/1/1 46/2/1 47/3/1 48/4/1
f 46/1/1 49/2/1 39/3/1 47/4/1
f 49/1/1 50/2/1 40/3/1 39/4/1
f 51/1/1 52/2/1 42/3/1 41/4/1
f 53/1/1 54/2/1 50/3/1 49/4/1
f 55/1/1 56/2/1 52/3/1 51/4/1
f 57/1/1 58/2/1 54/3/1 53/4/1
f 59/1/1 60/2/1 56/3/1 55/4/1
f 60/1/1 61/2/1 62/3/1 56/4/1
f 61/1/1 63/2/1 64/3/1 62/4/1
f 63/1/1 65/2/1 66/3/1 64/4/1
f 65/5/1 67/6/1 68/7/1 66/8/1
f 69/9/1 70/10/1 71/11/1 72/12/1
f 70/13/1 73/14/1 74/15/1 71/16/1
f 73/17/1 75/18/1 76/19/1 74/20/1
f 75/1/1 77/2/1 78/3/1 76/4/1
f 77/1/1 79/2/1 57/3/1 78/4/1
f 79/1/1 80/2/1 58/3/1 57/4/1
f 81/21/1 82/22/1 60/23/1 59/24/1
f 82/21/1 83/22/1 61/23/1 60/24/1
f 83/21/1 84/22/1 63/23/1 61/24/1
f 84/21/1 85/22/1 65/23/1 63/24/1
f 85/25/1 86/26/1 67/27/1 65/28/1
f 87/9/1 88/10/1 89/11/1 90/12/1
f 88/13/1 91/14/1 92/15/1 89/16/1
f 91/13/1 93/14/1 69/15/1 92/16/1
f 93/17/1 94/18/1 70/19/1 69/20/1
f 94/1/1 95/2/1 73/3/1 70/4/1
f 95/1/1 96/2/1 75/3/1 73/4/1
f 96/1/1 97/2/1 77/3/1 75/4/1
f 97/1/1 98/2/1 79/3/1 77/4/1
f 98/1/1 99/2/1 80/3/1 79/4/1
f 100/13/1 101/14/1 82/15/1 81/16/1
f 101/13/1 102/14/1 83/15/1 82/16/1
f 102/13/1 103/14/1 84/15/1 83/16/1
f 103/13/1 104/14/1 85/15/1 84/16/1
f 104/13/1 105/14/1 86/15/1 85/16/1
f 105/13/1 106/14/1 87/15/1 86/16/1
f 106/17/1 107/18/1 88/19/1 87/20/1
f 107/1/1 108/2/1 91/3/1 88/4/1
f 108/1/1 109/2/1 93/3/1 91/4/1
f 109/1/1 110/2/1 94/3/1 93/4/1
f 110/1/1 111/2/1 95/3/1 94/4/1
f 111/1/1 112/2/1 96/3/1 95/4/1
f 112/1/1 113/2/1 97/3/1 96/4/1
f 113/1/1 114/2/1 98/3/1 97/4/1
f 114/1/1 115/2/1 99/3/1 98/4/1
f 116/1/1 117/2/1 101/3/1 100/4/1
f 117/1/1 118/2/1 102/3/1 101/4/1
f 118/1/1 119/2/1 103/3/1 102/4/1
f 119/1/1 120/2/1 104/3/1 103/4/1
f 120/1/1 121/2/1 105/3/1 104/4/1
f 121/1/1 122/2/1 106/3/1 105/4/1
f 122/1/1 123/2/1 107/3/1 106/4/1
f 123/1/1 124/2/1 108/3/1 107/4/1
f 124/1/1 125/2/1 109/3/1 108/4/1
f 125/1/1 126/2/1 110/3/1 109/4/1
f 126/1/1 127/2/1 111/3/1 110/4/1
f 127/1/1 128/2/1 112/3/1 111/4/1
f 128/1/1 129/2/1 113/3/1 112/4/1
f 129/1/1 130/2/1 114/3/1 113/4/1
f 130/1/1 131/2/1 115/3/1 114/4/1

g mesh_tile_0018
f 1/29/1 2/30/1 3/31/1 4/32/1

g mesh_tile_0017
f 1/33/1 2/34/1 3/35/1 4/36/1

g mesh_tile_0021
f 1/37/1 2/38/1 3/39/1 4/40/1

g mesh_tile_0014
f 1/41/1 2/42/1 3/43/1 4/44/1

g mesh_tile_0023
f 1/45/1 2/46/1 3/47/1 4/48/1

