# Wavefront OBJ file automatically generated by Tiled2Unity

# Vertices (Count = 226)
v 0 -2 0
v -1 -2 0
v -1 -1 0
v 0 -1 0
v -4 -3 0
v -5 -3 0
v -5 -2 0
v -4 -2 0
v 0 -4 0
v -1 -4 0
v -1 -3 0
v 0 -3 0
v -2 -4 0
v -2 -3 0
v -3 -4 0
v -3 -3 0
v -4 -4 0
v -5 -4 0
v -2 -5 0
v -3 -5 0
v -2 -6 0
v -3 -6 0
v -2 -7 0
v -3 -7 0
v -1 -8 0
v -2 -8 0
v -1 -7 0
v -3 -8 0
v -4 -8 0
v -4 -7 0
v -1 -9 0
v -2 -9 0
v -3 -9 0
v -4 -9 0
v -1 -10 0
v -2 -10 0
v -3 -10 0
v -4 -10 0
v 0 -11 0
v -1 -11 0
v 0 -10 0
v -2 -11 0
v -3 -11 0
v -4 -11 0
v -5 -11 0
v -5 -10 0
v 0 -12 0
v -1 -12 0
v -2 -12 0
v -3 -12 0
v -4 -12 0
v -5 -12 0
v 0 -13 0
v -1 -13 0
v -2 -13 0
v -3 -13 0
v -4 -13 0
v -5 -13 0
v -1 -14 0
v -2 -14 0
v -3 -14 0
v -4 -14 0
v -1 -15 0
v -2 -15 0
v -3 -15 0
v -4 -15 0
v -1 -16 0
v -2 -16 0
v -3 -16 0
v -4 -16 0
v 0 -17 0
v -1 -17 0
v 0 -16 0
v -2 -17 0
v -3 -17 0
v -4 -17 0
v -5 -17 0
v -5 -16 0
v 0 -18 0
v -1 -18 0
v -2 -18 0
v -3 -18 0
v -4 -18 0
v -5 -18 0
v 0 -19 0
v -1 -19 0
v -2 -19 0
v -3 -19 0
v -4 -19 0
v -5 -19 0
v -1 -20 0
v -2 -20 0
v -3 -20 0
v -4 -20 0
v -1 -21 0
v -2 -21 0
v -3 -21 0
v -4 -21 0
v -1 -22 0
v -2 -22 0
v -3 -22 0
v -4 -22 0
v -2 -23 0
v -3 -23 0
v -4 -23 0
v -5 -23 0
v -5 -22 0
v 0 -24 0
v -1 -24 0
v -1 -23 0
v 0 -23 0
v -2 -24 0
v -3 -24 0
v -4 -24 0
v -5 -24 0
v 0 -25 0
v -1 -25 0
v -2 -25 0
v -3 -25 0
v -4 -25 0
v -5 -25 0
v 0 -26 0
v -1 -26 0
v -2 -26 0
v -3 -26 0
v -4 -26 0
v -1 -27 0
v -2 -27 0
v -3 -27 0
v -4 -27 0
v -1 -28 0
v -2 -28 0
v -3 -28 0
v -4 -28 0
v -1 -29 0
v -2 -29 0
v -3 -29 0
v -4 -29 0
v -5 -29 0
v -5 -28 0
v 0 -30 0
v -1 -30 0
v 0 -29 0
v -2 -30 0
v -3 -30 0
v -4 -30 0
v -5 -30 0
v 0 -31 0
v -1 -31 0
v -2 -31 0
v -3 -31 0
v -4 -31 0
v -5 -31 0
v 0 -32 0
v -1 -32 0
v -2 -32 0
v -3 -32 0
v -4 -32 0
v -1 -33 0
v -2 -33 0
v -3 -33 0
v -4 -33 0
v -1 -34 0
v -2 -34 0
v -3 -34 0
v -4 -34 0
v -1 -35 0
v -2 -35 0
v -3 -35 0
v -4 -35 0
v -5 -35 0
v -5 -34 0
v 0 -36 0
v -1 -36 0
v 0 -35 0
v -2 -36 0
v -3 -36 0
v -4 -36 0
v -5 -36 0
v 0 -37 0
v -1 -37 0
v -2 -37 0
v -3 -37 0
v -4 -37 0
v -5 -37 0
v 0 -38 0
v -1 -38 0
v -2 -38 0
v -3 -38 0
v -1 -39 0
v -2 -39 0
v -3 -39 0
v -4 -39 0
v -4 -38 0
v -1 -40 0
v -2 -40 0
v -3 -40 0
v -4 -40 0
v -1 -41 0
v -2 -41 0
v -3 -41 0
v -4 -41 0
v 0 -42 0
v -1 -42 0
v 0 -41 0
v -4 -42 0
v -5 -42 0
v -5 -41 0
v 0 -43 0
v -1 -43 0
v -4 -43 0
v -5 -43 0
v 0 -44 0
v -1 -44 0
v -4 -44 0
v -5 -44 0
v -2 -49 0
v -3 -49 0
v -3 -48 0
v -2 -48 0
v -1 -50 0
v -2 -50 0
v -1 -49 0
v -3 -50 0
v -4 -50 0
v -4 -49 0

# Texture cooridinates (Count = 48)
vt 0.6001221 0.0001220703
vt 0.7998779 0.0001220703
vt 0.7998779 0.1998779
vt 0.6001221 0.1998779
vt 0.8001221 0.400122
vt 0.9998779 0.400122
vt 0.9998779 0.599878
vt 0.8001221 0.599878
vt 0.2001221 0.0001220703
vt 0.3998779 0.0001220703
vt 0.3998779 0.1998779
vt 0.2001221 0.1998779
vt 0.4001221 0.0001220703
vt 0.599878 0.0001220703
vt 0.599878 0.1998779
vt 0.4001221 0.1998779
vt 0.0001220703 0.0001220703
vt 0.1998779 0.0001220703
vt 0.1998779 0.1998779
vt 0.0001220703 0.1998779
vt 0.4001221 0.2001221
vt 0.599878 0.2001221
vt 0.599878 0.3998779
vt 0.4001221 0.3998779
vt 0.2001221 0.8001221
vt 0.3998779 0.8001221
vt 0.3998779 0.9998779
vt 0.2001221 0.9998779
vt 0.2001221 0.6001221
vt 0.3998779 0.6001221
vt 0.3998779 0.7998779
vt 0.2001221 0.7998779
vt 0.2001221 0.400122
vt 0.3998779 0.400122
vt 0.3998779 0.599878
vt 0.2001221 0.599878
vt 0.2001221 0.2001221
vt 0.3998779 0.2001221
vt 0.3998779 0.3998779
vt 0.2001221 0.3998779
vt 0.0001220703 0.400122
vt 0.1998779 0.400122
vt 0.1998779 0.599878
vt 0.0001220703 0.599878
vt 0.4001221 0.400122
vt 0.599878 0.400122
vt 0.599878 0.599878
vt 0.4001221 0.599878

# Normal
vn 0 0 -1

# Groups (Count = 1)

g mesh_0001
f 1/1/1 2/2/1 3/3/1 4/4/1
f 5/5/1 6/6/1 7/7/1 8/8/1
f 9/9/1 10/10/1 11/11/1 12/12/1
f 10/9/1 13/10/1 14/11/1 11/12/1
f 13/13/1 15/14/1 16/15/1 14/16/1
f 15/9/1 17/10/1 5/11/1 16/12/1
f 17/9/1 18/10/1 6/11/1 5/12/1
f 19/17/1 20/18/1 15/19/1 13/20/1
f 21/21/1 22/22/1 20/23/1 19/24/1
f 23/25/1 24/26/1 22/27/1 21/28/1
f 25/13/1 26/14/1 23/15/1 27/16/1
f 26/29/1 28/30/1 24/31/1 23/32/1
f 28/13/1 29/14/1 30/15/1 24/16/1
f 31/9/1 32/10/1 26/11/1 25/12/1
f 32/29/1 33/30/1 28/31/1 26/32/1
f 33/9/1 34/10/1 29/11/1 28/12/1
f 35/17/1 36/18/1 32/19/1 31/20/1
f 36/29/1 37/30/1 33/31/1 32/32/1
f 37/17/1 38/18/1 34/19/1 33/20/1
f 39/13/1 40/14/1 35/15/1 41/16/1
f 42/29/1 43/30/1 37/31/1 36/32/1
f 44/13/1 45/14/1 46/15/1 38/16/1
f 47/9/1 48/10/1 40/11/1 39/12/1
f 49/29/1 50/30/1 43/31/1 42/32/1
f 51/9/1 52/10/1 45/11/1 44/12/1
f 53/17/1 54/18/1 48/19/1 47/20/1
f 55/29/1 56/30/1 50/31/1 49/32/1
f 57/17/1 58/18/1 52/19/1 51/20/1
f 59/13/1 60/14/1 55/15/1 54/16/1
f 60/29/1 61/30/1 56/31/1 55/32/1
f 61/13/1 62/14/1 57/15/1 56/16/1
f 63/9/1 64/10/1 60/11/1 59/12/1
f 64/29/1 65/30/1 61/31/1 60/32/1
f 65/9/1 66/10/1 62/11/1 61/12/1
f 67/17/1 68/18/1 64/19/1 63/20/1
f 68/29/1 69/30/1 65/31/1 64/32/1
f 69/17/1 70/18/1 66/19/1 65/20/1
f 71/13/1 72/14/1 67/15/1 73/16/1
f 74/29/1 75/30/1 69/31/1 68/32/1
f 76/13/1 77/14/1 78/15/1 70/16/1
f 79/9/1 80/10/1 72/11/1 71/12/1
f 81/29/1 82/30/1 75/31/1 74/32/1
f 83/9/1 84/10/1 77/11/1 76/12/1
f 85/17/1 86/18/1 80/19/1 79/20/1
f 87/29/1 88/30/1 82/31/1 81/32/1
f 89/17/1 90/18/1 84/19/1 83/20/1
f 91/13/1 92/14/1 87/15/1 86/16/1
f 92/29/1 93/30/1 88/31/1 87/32/1
f 93/13/1 94/14/1 89/15/1 88/16/1
f 95/9/1 96/10/1 92/11/1 91/12/1
f 96/29/1 97/30/1 93/31/1 92/32/1
f 97/9/1 98/10/1 94/11/1 93/12/1
f 99/17/1 100/18/1 96/19/1 95/20/1
f 100/29/1 101/30/1 97/31/1 96/32/1
f 101/17/1 102/18/1 98/19/1 97/20/1
f 103/29/1 104/30/1 101/31/1 100/32/1
f 105/13/1 106/14/1 107/15/1 102/16/1
f 108/13/1 109/14/1 110/15/1 111/16/1
f 112/29/1 113/30/1 104/31/1 103/32/1
f 114/9/1 115/10/1 106/11/1 105/12/1
f 116/9/1 117/10/1 109/11/1 108/12/1
f 118/29/1 119/30/1 113/31/1 112/32/1
f 120/17/1 121/18/1 115/19/1 114/20/1
f 122/17/1 123/18/1 117/19/1 116/20/1
f 124/29/1 125/30/1 119/31/1 118/32/1
f 125/13/1 126/14/1 120/15/1 119/16/1
f 127/13/1 128/14/1 124/15/1 123/16/1
f 128/29/1 129/30/1 125/31/1 124/32/1
f 129/9/1 130/10/1 126/11/1 125/12/1
f 131/9/1 132/10/1 128/11/1 127/12/1
f 132/29/1 133/30/1 129/31/1 128/32/1
f 133/17/1 134/18/1 130/19/1 129/20/1
f 135/17/1 136/18/1 132/19/1 131/20/1
f 136/29/1 137/30/1 133/31/1 132/32/1
f 138/13/1 139/14/1 140/15/1 134/16/1
f 141/13/1 142/14/1 135/15/1 143/16/1
f 144/29/1 145/30/1 137/31/1 136/32/1
f 146/9/1 147/10/1 139/11/1 138/12/1
f 148/9/1 149/10/1 142/11/1 141/12/1
f 150/29/1 151/30/1 145/31/1 144/32/1
f 152/17/1 153/18/1 147/19/1 146/20/1
f 154/17/1 155/18/1 149/19/1 148/20/1
f 156/29/1 157/30/1 151/31/1 150/32/1
f 157/13/1 158/14/1 152/15/1 151/16/1
f 159/13/1 160/14/1 156/15/1 155/16/1
f 160/29/1 161/30/1 157/31/1 156/32/1
f 161/9/1 162/10/1 158/11/1 157/12/1
f 163/9/1 164/10/1 160/11/1 159/12/1
f 164/29/1 165/30/1 161/31/1 160/32/1
f 165/17/1 166/18/1 162/19/1 161/20/1
f 167/17/1 168/18/1 164/19/1 163/20/1
f 168/29/1 169/30/1 165/31/1 164/32/1
f 170/13/1 171/14/1 172/15/1 166/16/1
f 173/13/1 174/14/1 167/15/1 175/16/1
f 176/29/1 177/30/1 169/31/1 168/32/1
f 178/9/1 179/10/1 171/11/1 170/12/1
f 180/9/1 181/10/1 174/11/1 173/12/1
f 182/29/1 183/30/1 177/31/1 176/32/1
f 184/17/1 185/18/1 179/19/1 178/20/1
f 186/17/1 187/18/1 181/19/1 180/20/1
f 188/29/1 189/30/1 183/31/1 182/32/1
f 190/13/1 191/14/1 188/15/1 187/16/1
f 191/33/1 192/34/1 189/35/1 188/36/1
f 192/13/1 193/14/1 194/15/1 189/16/1
f 195/9/1 196/10/1 191/11/1 190/12/1
f 197/9/1 198/10/1 193/11/1 192/12/1
f 199/17/1 200/18/1 196/19/1 195/20/1
f 201/17/1 202/18/1 198/19/1 197/20/1
f 203/13/1 204/14/1 199/15/1 205/16/1
f 206/13/1 207/14/1 208/15/1 202/16/1
f 209/9/1 210/10/1 204/11/1 203/12/1
f 211/9/1 212/10/1 207/11/1 206/12/1
f 213/17/1 214/18/1 210/19/1 209/20/1
f 215/17/1 216/18/1 212/19/1 211/20/1
f 217/37/1 218/38/1 219/39/1 220/40/1
f 221/41/1 222/42/1 217/43/1 223/44/1
f 222/33/1 224/34/1 218/35/1 217/36/1
f 224/45/1 225/46/1 226/47/1 218/48/1

