# Wavefront OBJ file automatically generated by Tiled2Unity

# Vertices (Count = 181)
v -5.5 -47 0
v -6 -47 0
v -6 -46.5 0
v -5.5 -46.5 0
v -6.5 -47 0
v -6.5 -46.5 0
v -12.5 -47 0
v -13 -47 0
v -13 -46.5 0
v -12.5 -46.5 0
v -13.5 -47 0
v -13.5 -46.5 0
v -14 -47 0
v -14 -46.5 0
v -5.5 -47.5 0
v -6 -47.5 0
v -6.5 -47.5 0
v -12.5 -47.5 0
v -13 -47.5 0
v -13.5 -47.5 0
v -14 -47.5 0
v -14.5 -47.5 0
v -14.5 -47 0
v -5 -48 0
v -5.5 -48 0
v -5 -47.5 0
v -6 -48 0
v -6.5 -48 0
v -7 -48 0
v -7 -47.5 0
v -7.5 -48 0
v -7.5 -47.5 0
v -8 -48 0
v -8 -47.5 0
v -12 -48 0
v -12.5 -48 0
v -12 -47.5 0
v -13 -48 0
v -13.5 -48 0
v -14.5 -48 0
v -15 -48 0
v -15 -47.5 0
v 0 -48.5 0
v -0.5 -48.5 0
v -0.5 -48 0
v 0 -48 0
v -1 -48.5 0
v -1 -48 0
v -4.5 -48.5 0
v -5 -48.5 0
v -4.5 -48 0
v -8 -48.5 0
v -8.5 -48.5 0
v -8.5 -48 0
v -10 -48.5 0
v -10.5 -48.5 0
v -10.5 -48 0
v -10 -48 0
v -11 -48.5 0
v -11 -48 0
v -11.5 -48.5 0
v -12 -48.5 0
v -11.5 -48 0
v -12.5 -48.5 0
v -13 -48.5 0
v -13.5 -48.5 0
v -15 -48.5 0
v -15.5 -48.5 0
v -15.5 -48 0
v 0 -49 0
v -0.5 -49 0
v -1 -49 0
v -4 -49 0
v -4.5 -49 0
v -4 -48.5 0
v -8.5 -49 0
v -9 -49 0
v -9 -48.5 0
v -10 -49 0
v -10.5 -49 0
v -11 -49 0
v -11.5 -49 0
v -12 -49 0
v -13 -49 0
v -13.5 -49 0
v -15.5 -49 0
v -16 -49 0
v -16 -48.5 0
v -19 -49 0
v -19.5 -49 0
v -19.5 -48.5 0
v -19 -48.5 0
v -20 -49 0
v -20 -48.5 0
v 0 -49.5 0
v -0.5 -49.5 0
v -1 -49.5 0
v -1.5 -49.5 0
v -1.5 -49 0
v -2 -49.5 0
v -2 -49 0
v -3.5 -49.5 0
v -4 -49.5 0
v -3.5 -49 0
v -9 -49.5 0
v -9.5 -49.5 0
v -9.5 -49 0
v -10 -49.5 0
v -10.5 -49.5 0
v -11 -49.5 0
v -11.5 -49.5 0
v -12 -49.5 0
v -13 -49.5 0
v -13.5 -49.5 0
v -16 -49.5 0
v -16.5 -49.5 0
v -16.5 -49 0
v -19 -49.5 0
v -19.5 -49.5 0
v -20 -49.5 0
v 0 -50 0
v -0.5 -50 0
v -1 -50 0
v -1.5 -50 0
v -2 -50 0
v -2.5 -50 0
v -2.5 -49.5 0
v -3 -50 0
v -3 -49.5 0
v -3.5 -50 0
v -4 -50 0
v -4.5 -50 0
v -4.5 -49.5 0
v -5 -50 0
v -5 -49.5 0
v -5.5 -50 0
v -5.5 -49.5 0
v -6 -50 0
v -6 -49.5 0
v -6.5 -50 0
v -6.5 -49.5 0
v -7 -50 0
v -7 -49.5 0
v -7.5 -50 0
v -7.5 -49.5 0
v -8 -50 0
v -8 -49.5 0
v -8.5 -50 0
v -8.5 -49.5 0
v -9 -50 0
v -9.5 -50 0
v -10 -50 0
v -10.5 -50 0
v -11 -50 0
v -11.5 -50 0
v -12 -50 0
v -12.5 -50 0
v -12.5 -49.5 0
v -13 -50 0
v -13.5 -50 0
v -14 -50 0
v -14 -49.5 0
v -14.5 -50 0
v -14.5 -49.5 0
v -15 -50 0
v -15 -49.5 0
v -15.5 -50 0
v -15.5 -49.5 0
v -16 -50 0
v -16.5 -50 0
v -17 -50 0
v -17 -49.5 0
v -17.5 -50 0
v -17.5 -49.5 0
v -18 -50 0
v -18 -49.5 0
v -18.5 -50 0
v -18.5 -49.5 0
v -19 -50 0
v -19.5 -50 0
v -20 -50 0

# Texture cooridinates (Count = 72)
vt 0.1001221 0.400122
vt 0.1998779 0.400122
vt 0.1998779 0.4998779
vt 0.1001221 0.4998779
vt 0.2001221 0.6001221
vt 0.2998779 0.6001221
vt 0.2998779 0.6998779
vt 0.2001221 0.6998779
vt 0.3001221 0.6001221
vt 0.3998779 0.6001221
vt 0.3998779 0.6998779
vt 0.3001221 0.6998779
vt 0.2001221 0.7001221
vt 0.2998779 0.7001221
vt 0.2998779 0.7998779
vt 0.2001221 0.7998779
vt 0.0001220703 0.5001221
vt 0.09987793 0.5001221
vt 0.09987793 0.599878
vt 0.0001220703 0.599878
vt 0.0001220703 0.3001221
vt 0.09987793 0.3001221
vt 0.09987793 0.3998779
vt 0.0001220703 0.3998779
vt 0.1001221 0.3001221
vt 0.1998779 0.3001221
vt 0.1998779 0.3998779
vt 0.1001221 0.3998779
vt 0.4001221 0.3001221
vt 0.4998779 0.3001221
vt 0.4998779 0.3998779
vt 0.4001221 0.3998779
vt 0.5001221 0.3001221
vt 0.599878 0.3001221
vt 0.599878 0.3998779
vt 0.5001221 0.3998779
vt 0.0001220703 0.2001221
vt 0.09987793 0.2001221
vt 0.09987793 0.2998779
vt 0.0001220703 0.2998779
vt 0.1001221 0.2001221
vt 0.1998779 0.2001221
vt 0.1998779 0.2998779
vt 0.1001221 0.2998779
vt 0.4001221 0.2001221
vt 0.4998779 0.2001221
vt 0.4998779 0.2998779
vt 0.4001221 0.2998779
vt 0.5001221 0.2001221
vt 0.599878 0.2001221
vt 0.599878 0.2998779
vt 0.5001221 0.2998779
vt 0.2001221 0.3001221
vt 0.2998779 0.3001221
vt 0.2998779 0.3998779
vt 0.2001221 0.3998779
vt 0.3001221 0.3001221
vt 0.3998779 0.3001221
vt 0.3998779 0.3998779
vt 0.3001221 0.3998779
vt 0.1001221 0.7001221
vt 0.1998779 0.7001221
vt 0.1998779 0.7998779
vt 0.1001221 0.7998779
vt 0.2001221 0.2001221
vt 0.2998779 0.2001221
vt 0.2998779 0.2998779
vt 0.2001221 0.2998779
vt 0.3001221 0.2001221
vt 0.3998779 0.2001221
vt 0.3998779 0.2998779
vt 0.3001221 0.2998779

# Normal
vn 0 0 -1

# Groups (Count = 1)

g mesh_0001
f 1/1/1 2/2/1 3/3/1 4/4/1
f 2/1/1 5/2/1 6/3/1 3/4/1
f 7/5/1 8/6/1 9/7/1 10/8/1
f 8/9/1 11/10/1 12/11/1 9/12/1
f 11/9/1 13/10/1 14/11/1 12/12/1
f 15/1/1 16/2/1 2/3/1 1/4/1
f 16/1/1 17/2/1 5/3/1 2/4/1
f 18/5/1 19/6/1 8/7/1 7/8/1
f 19/9/1 20/10/1 11/11/1 8/12/1
f 21/9/1 22/10/1 23/11/1 13/12/1
f 24/13/1 25/14/1 15/15/1 26/16/1
f 25/13/1 27/14/1 16/15/1 15/16/1
f 28/13/1 29/14/1 30/15/1 17/16/1
f 29/13/1 31/14/1 32/15/1 30/16/1
f 31/13/1 33/14/1 34/15/1 32/16/1
f 35/17/1 36/18/1 18/19/1 37/20/1
f 36/17/1 38/18/1 19/19/1 18/20/1
f 38/5/1 39/6/1 20/7/1 19/8/1
f 40/9/1 41/10/1 42/11/1 22/12/1
f 43/21/1 44/22/1 45/23/1 46/24/1
f 44/25/1 47/26/1 48/27/1 45/28/1
f 49/13/1 50/14/1 24/15/1 51/16/1
f 52/13/1 53/14/1 54/15/1 33/16/1
f 55/29/1 56/30/1 57/31/1 58/32/1
f 56/33/1 59/34/1 60/35/1 57/36/1
f 61/5/1 62/6/1 35/7/1 63/8/1
f 62/9/1 64/10/1 36/11/1 35/12/1
f 65/5/1 66/6/1 39/7/1 38/8/1
f 67/9/1 68/10/1 69/11/1 41/12/1
f 70/37/1 71/38/1 44/39/1 43/40/1
f 71/41/1 72/42/1 47/43/1 44/44/1
f 73/13/1 74/14/1 49/15/1 75/16/1
f 76/13/1 77/14/1 78/15/1 53/16/1
f 79/45/1 80/46/1 56/47/1 55/48/1
f 80/49/1 81/50/1 59/51/1 56/52/1
f 81/5/1 82/6/1 61/7/1 59/8/1
f 82/9/1 83/10/1 62/11/1 61/12/1
f 84/5/1 85/6/1 66/7/1 65/8/1
f 86/9/1 87/10/1 88/11/1 68/12/1
f 89/53/1 90/54/1 91/55/1 92/56/1
f 90/57/1 93/58/1 94/59/1 91/60/1
f 95/61/1 96/62/1 71/63/1 70/64/1
f 96/13/1 97/14/1 72/15/1 71/16/1
f 97/61/1 98/62/1 99/63/1 72/64/1
f 98/13/1 100/14/1 101/15/1 99/16/1
f 102/13/1 103/14/1 73/15/1 104/16/1
f 105/13/1 106/14/1 107/15/1 77/16/1
f 106/13/1 108/14/1 79/15/1 107/16/1
f 108/13/1 109/14/1 80/15/1 79/16/1
f 109/13/1 110/14/1 81/15/1 80/16/1
f 110/13/1 111/14/1 82/15/1 81/16/1
f 111/13/1 112/14/1 83/15/1 82/16/1
f 113/5/1 114/6/1 85/7/1 84/8/1
f 115/9/1 116/10/1 117/11/1 87/12/1
f 118/65/1 119/66/1 90/67/1 89/68/1
f 119/69/1 120/70/1 93/71/1 90/72/1
f 121/61/1 122/62/1 96/63/1 95/64/1
f 122/13/1 123/14/1 97/15/1 96/16/1
f 123/13/1 124/14/1 98/15/1 97/16/1
f 124/13/1 125/14/1 100/15/1 98/16/1
f 125/13/1 126/14/1 127/15/1 100/16/1
f 126/61/1 128/62/1 129/63/1 127/64/1
f 128/13/1 130/14/1 102/15/1 129/16/1
f 130/61/1 131/62/1 103/63/1 102/64/1
f 131/13/1 132/14/1 133/15/1 103/16/1
f 132/13/1 134/14/1 135/15/1 133/16/1
f 134/13/1 136/14/1 137/15/1 135/16/1
f 136/13/1 138/14/1 139/15/1 137/16/1
f 138/13/1 140/14/1 141/15/1 139/16/1
f 140/13/1 142/14/1 143/15/1 141/16/1
f 142/13/1 144/14/1 145/15/1 143/16/1
f 144/13/1 146/14/1 147/15/1 145/16/1
f 146/13/1 148/14/1 149/15/1 147/16/1
f 148/13/1 150/14/1 105/15/1 149/16/1
f 150/13/1 151/14/1 106/15/1 105/16/1
f 151/13/1 152/14/1 108/15/1 106/16/1
f 152/13/1 153/14/1 109/15/1 108/16/1
f 153/13/1 154/14/1 110/15/1 109/16/1
f 154/13/1 155/14/1 111/15/1 110/16/1
f 155/13/1 156/14/1 112/15/1 111/16/1
f 156/13/1 157/14/1 158/15/1 112/16/1
f 157/13/1 159/14/1 113/15/1 158/16/1
f 159/13/1 160/14/1 114/15/1 113/16/1
f 160/13/1 161/14/1 162/15/1 114/16/1
f 161/13/1 163/14/1 164/15/1 162/16/1
f 163/13/1 165/14/1 166/15/1 164/16/1
f 165/13/1 167/14/1 168/15/1 166/16/1
f 167/13/1 169/14/1 115/15/1 168/16/1
f 169/13/1 170/14/1 116/15/1 115/16/1
f 170/13/1 171/14/1 172/15/1 116/16/1
f 171/13/1 173/14/1 174/15/1 172/16/1
f 173/13/1 175/14/1 176/15/1 174/16/1
f 175/13/1 177/14/1 178/15/1 176/16/1
f 177/13/1 179/14/1 118/15/1 178/16/1
f 179/13/1 180/14/1 119/15/1 118/16/1
f 180/13/1 181/14/1 120/15/1 119/16/1

