# Wavefront OBJ file automatically generated by Tiled2Unity

# Vertices (Count = 511)
v -16.5 -0.5 0
v -17 -0.5 0
v -17 0 0
v -16.5 0 0
v -17.5 -0.5 0
v -17.5 0 0
v -16.5 -1 0
v -17 -1 0
v -17.5 -1 0
v -18 -1 0
v -18 -0.5 0
v -18.5 -1 0
v -18.5 -0.5 0
v -16.5 -1.5 0
v -17 -1.5 0
v -17.5 -1.5 0
v -18 -1.5 0
v -18.5 -1.5 0
v -19 -1.5 0
v -19.5 -1.5 0
v -19.5 -1 0
v -19 -1 0
v -20 -1.5 0
v -20 -1 0
v -16.5 -2 0
v -17 -2 0
v -17.5 -2 0
v -18 -2 0
v -18.5 -2 0
v -19 -2 0
v -19.5 -2 0
v -20 -2 0
v -18 -2.5 0
v -18.5 -2.5 0
v -19 -2.5 0
v -19.5 -2.5 0
v -20 -2.5 0
v -18 -3 0
v -18.5 -3 0
v -19 -3 0
v -19.5 -3 0
v -20 -3 0
v -17.5 -3.5 0
v -18 -3.5 0
v -17.5 -3 0
v -18.5 -3.5 0
v -19 -3.5 0
v -19.5 -3.5 0
v -20 -3.5 0
v -16.5 -4 0
v -17 -4 0
v -17 -3.5 0
v -16.5 -3.5 0
v -17.5 -4 0
v -19 -4 0
v -19.5 -4 0
v -20 -4 0
v -15.5 -4.5 0
v -16 -4.5 0
v -16 -4 0
v -15.5 -4 0
v -16.5 -4.5 0
v -17 -4.5 0
v -17.5 -4.5 0
v -18 -4.5 0
v -18 -4 0
v -19 -4.5 0
v -19.5 -4.5 0
v -20 -4.5 0
v -14.5 -5 0
v -15 -5 0
v -15 -4.5 0
v -14.5 -4.5 0
v -15.5 -5 0
v -17 -5 0
v -17.5 -5 0
v -18 -5 0
v -18.5 -5 0
v -19 -5 0
v -18.5 -4.5 0
v -19.5 -5 0
v -20 -5 0
v -13.5 -5.5 0
v -14 -5.5 0
v -14 -5 0
v -13.5 -5 0
v -14.5 -5.5 0
v -16.5 -5.5 0
v -17 -5.5 0
v -16.5 -5 0
v -17.5 -5.5 0
v -18 -5.5 0
v -18.5 -5.5 0
v -19 -5.5 0
v -19.5 -5.5 0
v -20 -5.5 0
v -12.5 -6 0
v -13 -6 0
v -13 -5.5 0
v -12.5 -5.5 0
v -13.5 -6 0
v -14 -6 0
v -14.5 -6 0
v -15 -6 0
v -15 -5.5 0
v -15.5 -6 0
v -16 -6 0
v -16 -5.5 0
v -15.5 -5.5 0
v -16.5 -6 0
v -17 -6 0
v -17.5 -6 0
v -18 -6 0
v -18.5 -6 0
v -19 -6 0
v -19.5 -6 0
v -20 -6 0
v -3.5 -6.5 0
v -4 -6.5 0
v -4 -6 0
v -3.5 -6 0
v -4.5 -6.5 0
v -4.5 -6 0
v -5 -6.5 0
v -5 -6 0
v -5.5 -6.5 0
v -5.5 -6 0
v -6 -6.5 0
v -6 -6 0
v -6.5 -6.5 0
v -6.5 -6 0
v -7 -6.5 0
v -7 -6 0
v -7.5 -6.5 0
v -7.5 -6 0
v -8 -6.5 0
v -8 -6 0
v -12.5 -6.5 0
v -13 -6.5 0
v -13.5 -6.5 0
v -14 -6.5 0
v -14.5 -6.5 0
v -15 -6.5 0
v -15.5 -6.5 0
v -16 -6.5 0
v -16.5 -6.5 0
v -18.5 -6.5 0
v -19 -6.5 0
v -19.5 -6.5 0
v -20 -6.5 0
v -6 -7 0
v -6.5 -7 0
v -7 -7 0
v -14.5 -7 0
v -15 -7 0
v -15.5 -7 0
v -19 -7 0
v -19.5 -7 0
v -20 -7 0
v -6 -7.5 0
v -6.5 -7.5 0
v -7 -7.5 0
v -8.5 -7.5 0
v -9 -7.5 0
v -9 -7 0
v -8.5 -7 0
v -9.5 -7.5 0
v -9.5 -7 0
v -10 -7.5 0
v -10 -7 0
v -10.5 -7.5 0
v -10.5 -7 0
v -11 -7.5 0
v -11.5 -7.5 0
v -11.5 -7 0
v -11 -7 0
v -12 -7.5 0
v -12 -7 0
v -12.5 -7.5 0
v -12.5 -7 0
v -13 -7.5 0
v -13.5 -7.5 0
v -13.5 -7 0
v -13 -7 0
v -14 -7.5 0
v -14.5 -7.5 0
v -14 -7 0
v -17 -7.5 0
v -17.5 -7.5 0
v -17.5 -7 0
v -17 -7 0
v -19 -7.5 0
v -19.5 -7.5 0
v -20 -7.5 0
v -5.5 -8 0
v -6 -8 0
v -5.5 -7.5 0
v -6.5 -8 0
v -7 -8 0
v -7.5 -8 0
v -7.5 -7.5 0
v -17 -8 0
v -17.5 -8 0
v -19 -8 0
v -19.5 -8 0
v -20 -8 0
v -4.5 -8.5 0
v -5 -8.5 0
v -5 -8 0
v -4.5 -8 0
v -5.5 -8.5 0
v -6 -8.5 0
v -6.5 -8.5 0
v -7 -8.5 0
v -7.5 -8.5 0
v -9.5 -8.5 0
v -10 -8.5 0
v -10 -8 0
v -9.5 -8 0
v -10.5 -8.5 0
v -10.5 -8 0
v -11 -8.5 0
v -11 -8 0
v -11.5 -8.5 0
v -11.5 -8 0
v -13 -8.5 0
v -13.5 -8.5 0
v -13.5 -8 0
v -13 -8 0
v -14 -8.5 0
v -14 -8 0
v -14.5 -8.5 0
v -14.5 -8 0
v -15 -8.5 0
v -15 -8 0
v -15.5 -8.5 0
v -15.5 -8 0
v -16 -8.5 0
v -16 -8 0
v -16.5 -8.5 0
v -17 -8.5 0
v -16.5 -8 0
v -17.5 -8.5 0
v -18.5 -8.5 0
v -19 -8.5 0
v -18.5 -8 0
v -19.5 -8.5 0
v -20 -8.5 0
v -4.5 -9 0
v -5 -9 0
v -5.5 -9 0
v -6 -9 0
v -6.5 -9 0
v -7 -9 0
v -8.5 -9 0
v -9 -9 0
v -9 -8.5 0
v -8.5 -8.5 0
v -9.5 -9 0
v -10 -9 0
v -10.5 -9 0
v -11 -9 0
v -11.5 -9 0
v -12 -9 0
v -12 -8.5 0
v -12.5 -9 0
v -12.5 -8.5 0
v -13 -9 0
v -13.5 -9 0
v -14 -9 0
v -14.5 -9 0
v -15 -9 0
v -15.5 -9 0
v -16 -9 0
v -16.5 -9 0
v -17 -9 0
v -17.5 -9 0
v -19 -9 0
v -19.5 -9 0
v -20 -9 0
v -3.5 -9.5 0
v -4 -9.5 0
v -4 -9 0
v -3.5 -9 0
v -4.5 -9.5 0
v -5 -9.5 0
v -5.5 -9.5 0
v -16 -9.5 0
v -16.5 -9.5 0
v -17 -9.5 0
v -17.5 -9.5 0
v -19 -9.5 0
v -19.5 -9.5 0
v -20 -9.5 0
v -4 -10 0
v -4.5 -10 0
v -5 -10 0
v -17 -10 0
v -17.5 -10 0
v -19 -10 0
v -19.5 -10 0
v -20 -10 0
v -4 -10.5 0
v -4.5 -10.5 0
v -5 -10.5 0
v -19 -10.5 0
v -19.5 -10.5 0
v -20 -10.5 0
v 0 -11 0
v -0.5 -11 0
v -0.5 -10.5 0
v 0 -10.5 0
v -4 -11 0
v -4.5 -11 0
v -5 -11 0
v -19 -11 0
v -19.5 -11 0
v -20 -11 0
v 0 -11.5 0
v -0.5 -11.5 0
v -1 -11.5 0
v -1 -11 0
v -1.5 -11.5 0
v -1.5 -11 0
v -4 -11.5 0
v -4.5 -11.5 0
v -5 -11.5 0
v -19 -11.5 0
v -19.5 -11.5 0
v -20 -11.5 0
v 0 -12 0
v -0.5 -12 0
v -1 -12 0
v -1.5 -12 0
v -2 -12 0
v -2 -11.5 0
v -2.5 -12 0
v -2.5 -11.5 0
v -3 -12 0
v -3 -11.5 0
v -3.5 -12 0
v -3.5 -11.5 0
v -4 -12 0
v -4.5 -12 0
v -5 -12 0
v -19 -12 0
v -19.5 -12 0
v -20 -12 0
v -1.5 -12.5 0
v -2 -12.5 0
v -2.5 -12.5 0
v -3 -12.5 0
v -3.5 -12.5 0
v -4 -12.5 0
v -4.5 -12.5 0
v -5 -12.5 0
v -5.5 -12.5 0
v -5.5 -12 0
v -6 -12.5 0
v -6 -12 0
v -6.5 -12.5 0
v -6.5 -12 0
v -7 -12.5 0
v -7 -12 0
v -7.5 -12.5 0
v -8 -12.5 0
v -8 -12 0
v -7.5 -12 0
v -8.5 -12.5 0
v -8.5 -12 0
v -12.5 -12.5 0
v -13 -12.5 0
v -13 -12 0
v -12.5 -12 0
v -15 -12.5 0
v -15.5 -12.5 0
v -15.5 -12 0
v -15 -12 0
v -18 -12.5 0
v -18.5 -12.5 0
v -18.5 -12 0
v -18 -12 0
v -19 -12.5 0
v -19.5 -12.5 0
v -20 -12.5 0
v -6.5 -13 0
v -7 -13 0
v -7.5 -13 0
v -8 -13 0
v -8.5 -13 0
v -9 -13 0
v -9.5 -13 0
v -9.5 -12.5 0
v -9 -12.5 0
v -10 -13 0
v -10.5 -13 0
v -10.5 -12.5 0
v -10 -12.5 0
v -11 -13 0
v -11 -12.5 0
v -11.5 -13 0
v -11.5 -12.5 0
v -12 -13 0
v -12.5 -13 0
v -12 -12.5 0
v -13 -13 0
v -13.5 -13 0
v -13.5 -12.5 0
v -14 -13 0
v -14 -12.5 0
v -14.5 -13 0
v -14.5 -12.5 0
v -15 -13 0
v -15.5 -13 0
v -16 -13 0
v -16 -12.5 0
v -17.5 -13 0
v -18 -13 0
v -17.5 -12.5 0
v 0 -13.5 0
v -0.5 -13.5 0
v -0.5 -13 0
v 0 -13 0
v -1 -13.5 0
v -1 -13 0
v -1.5 -13.5 0
v -1.5 -13 0
v -2 -13.5 0
v -2 -13 0
v -2.5 -13.5 0
v -2.5 -13 0
v -3 -13.5 0
v -3 -13 0
v -6 -13.5 0
v -6.5 -13.5 0
v -6 -13 0
v -10 -13.5 0
v -10.5 -13.5 0
v -11 -13.5 0
v -11.5 -13.5 0
v -13.5 -13.5 0
v -14 -13.5 0
v -14.5 -13.5 0
v -16 -13.5 0
v -16.5 -13.5 0
v -16.5 -13 0
v -17 -13.5 0
v -17 -13 0
v 0 -14 0
v -0.5 -14 0
v -1 -14 0
v -1.5 -14 0
v -2 -14 0
v -2.5 -14 0
v -3 -14 0
v -3.5 -14 0
v -3.5 -13.5 0
v -4 -14 0
v -4 -13.5 0
v -4.5 -14 0
v -4.5 -13.5 0
v -5 -14 0
v -5 -13.5 0
v -5.5 -14 0
v -5.5 -13.5 0
v -6 -14 0
v -6.5 -14 0
v -7 -14 0
v -7 -13.5 0
v -7.5 -14 0
v -7.5 -13.5 0
v -8 -14 0
v -8 -13.5 0
v -8.5 -14 0
v -8.5 -13.5 0
v -9 -14 0
v -9 -13.5 0
v -9.5 -14 0
v -9.5 -13.5 0
v -10 -14 0
v -10.5 -14 0
v -11 -14 0
v -11.5 -14 0
v -12 -14 0
v -12 -13.5 0
v -12.5 -14 0
v -12.5 -13.5 0
v -13 -14 0
v -13 -13.5 0
v -13.5 -14 0
v -14 -14 0
v -14.5 -14 0
v -15 -14 0
v -15 -13.5 0
v -15.5 -14 0
v -15.5 -13.5 0
v -16 -14 0
v -16.5 -14 0
v -17 -14 0
v -17.5 -14 0
v -17.5 -13.5 0
v -18 -14 0
v -18 -13.5 0
v -18.5 -14 0
v -18.5 -13.5 0
v -19 -14 0
v -19 -13.5 0
v -19.5 -14 0
v -19.5 -13.5 0
v -20 -14 0
v -20 -13.5 0

# Texture cooridinates (Count = 204)
vt 0.2001221 0.7001221
vt 0.2998779 0.7001221
vt 0.2998779 0.7998779
vt 0.2001221 0.7998779
vt 0.3001221 0.7001221
vt 0.3998779 0.7001221
vt 0.3998779 0.7998779
vt 0.3001221 0.7998779
vt 0.4001221 0.3001221
vt 0.4998779 0.3001221
vt 0.4998779 0.3998779
vt 0.4001221 0.3998779
vt 0.5001221 0.3001221
vt 0.599878 0.3001221
vt 0.599878 0.3998779
vt 0.5001221 0.3998779
vt 0.4001221 0.2001221
vt 0.4998779 0.2001221
vt 0.4998779 0.2998779
vt 0.4001221 0.2998779
vt 0.5001221 0.2001221
vt 0.599878 0.2001221
vt 0.599878 0.2998779
vt 0.5001221 0.2998779
vt 0.6001221 0.3001221
vt 0.6998779 0.3001221
vt 0.6998779 0.3998779
vt 0.6001221 0.3998779
vt 0.7001221 0.3001221
vt 0.7998779 0.3001221
vt 0.7998779 0.3998779
vt 0.7001221 0.3998779
vt 0.4001221 0.6001221
vt 0.4998779 0.6001221
vt 0.4998779 0.6998779
vt 0.4001221 0.6998779
vt 0.3001221 0.6001221
vt 0.3998779 0.6001221
vt 0.3998779 0.6998779
vt 0.3001221 0.6998779
vt 0.6001221 0.2001221
vt 0.6998779 0.2001221
vt 0.6998779 0.2998779
vt 0.6001221 0.2998779
vt 0.7001221 0.2001221
vt 0.7998779 0.2001221
vt 0.7998779 0.2998779
vt 0.7001221 0.2998779
vt 0.2001221 0.1001221
vt 0.2998779 0.1001221
vt 0.2998779 0.1998779
vt 0.2001221 0.1998779
vt 0.3001221 0.1001221
vt 0.3998779 0.1001221
vt 0.3998779 0.1998779
vt 0.3001221 0.1998779
vt 0.0001220703 0.1001221
vt 0.09987793 0.1001221
vt 0.09987793 0.1998779
vt 0.0001220703 0.1998779
vt 0.1001221 0.1001221
vt 0.1998779 0.1001221
vt 0.1998779 0.1998779
vt 0.1001221 0.1998779
vt 0.0001220703 0.0001220703
vt 0.09987793 0.0001220703
vt 0.09987793 0.09987795
vt 0.0001220703 0.09987795
vt 0.1001221 0.0001220703
vt 0.1998779 0.0001220703
vt 0.1998779 0.09987795
vt 0.1001221 0.09987795
vt 0.4001221 0.1001221
vt 0.4998779 0.1001221
vt 0.4998779 0.1998779
vt 0.4001221 0.1998779
vt 0.5001221 0.1001221
vt 0.599878 0.1001221
vt 0.599878 0.1998779
vt 0.5001221 0.1998779
vt 0.0001220703 0.400122
vt 0.09987793 0.400122
vt 0.09987793 0.4998779
vt 0.0001220703 0.4998779
vt 0.0001220703 0.3001221
vt 0.09987793 0.3001221
vt 0.09987793 0.3998779
vt 0.0001220703 0.3998779
vt 0.1001221 0.3001221
vt 0.1998779 0.3001221
vt 0.1998779 0.3998779
vt 0.1001221 0.3998779
vt 0.4001221 0.0001220703
vt 0.4998779 0.0001220703
vt 0.4998779 0.09987795
vt 0.4001221 0.09987795
vt 0.5001221 0.0001220703
vt 0.599878 0.0001220703
vt 0.599878 0.09987795
vt 0.5001221 0.09987795
vt 0.0001220703 0.2001221
vt 0.09987793 0.2001221
vt 0.09987793 0.2998779
vt 0.0001220703 0.2998779
vt 0.1001221 0.2001221
vt 0.1998779 0.2001221
vt 0.1998779 0.2998779
vt 0.1001221 0.2998779
vt 0.2001221 0.6001221
vt 0.2998779 0.6001221
vt 0.2998779 0.6998779
vt 0.2001221 0.6998779
vt 0.7001221 0.900122
vt 0.7998779 0.900122
vt 0.7998779 0.9998779
vt 0.7001221 0.9998779
vt 0.8001221 0.900122
vt 0.8998779 0.900122
vt 0.8998779 0.9998779
vt 0.8001221 0.9998779
vt 0.2001221 0.3001221
vt 0.2998779 0.3001221
vt 0.2998779 0.3998779
vt 0.2001221 0.3998779
vt 0.3001221 0.3001221
vt 0.3998779 0.3001221
vt 0.3998779 0.3998779
vt 0.3001221 0.3998779
vt 0.6001221 0.8001221
vt 0.6998779 0.8001221
vt 0.6998779 0.8998779
vt 0.6001221 0.8998779
vt 0.7001221 0.8001221
vt 0.7998779 0.8001221
vt 0.7998779 0.8998779
vt 0.7001221 0.8998779
vt 0.8001221 0.8001221
vt 0.8998779 0.8001221
vt 0.8998779 0.8998779
vt 0.8001221 0.8998779
vt 0.900122 0.8001221
vt 0.9998779 0.8001221
vt 0.9998779 0.8998779
vt 0.900122 0.8998779
vt 0.2001221 0.2001221
vt 0.2998779 0.2001221
vt 0.2998779 0.2998779
vt 0.2001221 0.2998779
vt 0.3001221 0.2001221
vt 0.3998779 0.2001221
vt 0.3998779 0.2998779
vt 0.3001221 0.2998779
vt 0.6001221 0.7001221
vt 0.6998779 0.7001221
vt 0.6998779 0.7998779
vt 0.6001221 0.7998779
vt 0.7001221 0.7001221
vt 0.7998779 0.7001221
vt 0.7998779 0.7998779
vt 0.7001221 0.7998779
vt 0.8001221 0.7001221
vt 0.8998779 0.7001221
vt 0.8998779 0.7998779
vt 0.8001221 0.7998779
vt 0.900122 0.7001221
vt 0.9998779 0.7001221
vt 0.9998779 0.7998779
vt 0.900122 0.7998779
vt 0.6001221 0.400122
vt 0.6998779 0.400122
vt 0.6998779 0.4998779
vt 0.6001221 0.4998779
vt 0.7001221 0.400122
vt 0.7998779 0.400122
vt 0.7998779 0.4998779
vt 0.7001221 0.4998779
vt 0.7001221 0.6001221
vt 0.7998779 0.6001221
vt 0.7998779 0.6998779
vt 0.7001221 0.6998779
vt 0.8001221 0.6001221
vt 0.8998779 0.6001221
vt 0.8998779 0.6998779
vt 0.8001221 0.6998779
vt 0.3001221 0.0001220703
vt 0.3998779 0.0001220703
vt 0.3998779 0.09987795
vt 0.3001221 0.09987795
vt 0.2001221 0.0001220703
vt 0.2998779 0.0001220703
vt 0.2998779 0.09987795
vt 0.2001221 0.09987795
vt 0.1001221 0.7001221
vt 0.1998779 0.7001221
vt 0.1998779 0.7998779
vt 0.1001221 0.7998779
vt 0.4001221 0.7001221
vt 0.4998779 0.7001221
vt 0.4998779 0.7998779
vt 0.4001221 0.7998779
vt 0.1001221 0.6001221
vt 0.1998779 0.6001221
vt 0.1998779 0.6998779
vt 0.1001221 0.6998779

# Normal
vn 0 0 -1

# Groups (Count = 1)

g mesh_0001
f 1/1/1 2/2/1 3/3/1 4/4/1
f 2/5/1 5/6/1 6/7/1 3/8/1
f 7/1/1 8/2/1 2/3/1 1/4/1
f 8/5/1 9/6/1 5/7/1 2/8/1
f 9/9/1 10/10/1 11/11/1 5/12/1
f 10/13/1 12/14/1 13/15/1 11/16/1
f 14/1/1 15/2/1 8/3/1 7/4/1
f 15/5/1 16/6/1 9/7/1 8/8/1
f 16/17/1 17/18/1 10/19/1 9/20/1
f 17/21/1 18/22/1 12/23/1 10/24/1
f 19/25/1 20/26/1 21/27/1 22/28/1
f 20/29/1 23/30/1 24/31/1 21/32/1
f 25/1/1 26/2/1 15/3/1 14/4/1
f 26/5/1 27/6/1 16/7/1 15/8/1
f 27/33/1 28/34/1 17/35/1 16/36/1
f 28/37/1 29/38/1 18/39/1 17/40/1
f 29/37/1 30/38/1 19/39/1 18/40/1
f 30/37/1 31/38/1 20/39/1 19/40/1
f 31/37/1 32/38/1 23/39/1 20/40/1
f 33/41/1 34/42/1 29/43/1 28/44/1
f 34/45/1 35/46/1 30/47/1 29/48/1
f 35/25/1 36/26/1 31/27/1 30/28/1
f 36/29/1 37/30/1 32/31/1 31/32/1
f 38/37/1 39/38/1 34/39/1 33/40/1
f 39/1/1 40/2/1 35/3/1 34/4/1
f 40/25/1 41/26/1 36/27/1 35/28/1
f 41/29/1 42/30/1 37/31/1 36/32/1
f 43/1/1 44/2/1 38/3/1 45/4/1
f 44/1/1 46/2/1 39/3/1 38/4/1
f 47/25/1 48/26/1 41/27/1 40/28/1
f 48/29/1 49/30/1 42/31/1 41/32/1
f 50/49/1 51/50/1 52/51/1 53/52/1
f 51/53/1 54/54/1 43/55/1 52/56/1
f 55/25/1 56/26/1 48/27/1 47/28/1
f 56/29/1 57/30/1 49/31/1 48/32/1
f 58/49/1 59/50/1 60/51/1 61/52/1
f 59/53/1 62/54/1 50/55/1 60/56/1
f 63/57/1 64/58/1 54/59/1 51/60/1
f 64/61/1 65/62/1 66/63/1 54/64/1
f 67/25/1 68/26/1 56/27/1 55/28/1
f 68/29/1 69/30/1 57/31/1 56/32/1
f 70/49/1 71/50/1 72/51/1 73/52/1
f 71/53/1 74/54/1 58/55/1 72/56/1
f 75/65/1 76/66/1 64/67/1 63/68/1
f 76/69/1 77/70/1 65/71/1 64/72/1
f 78/57/1 79/58/1 67/59/1 80/60/1
f 79/25/1 81/26/1 68/27/1 67/28/1
f 81/29/1 82/30/1 69/31/1 68/32/1
f 83/49/1 84/50/1 85/51/1 86/52/1
f 84/53/1 87/54/1 70/55/1 85/56/1
f 88/57/1 89/58/1 75/59/1 90/60/1
f 89/61/1 91/62/1 76/63/1 75/64/1
f 91/57/1 92/58/1 77/59/1 76/60/1
f 92/61/1 93/62/1 78/63/1 77/64/1
f 93/65/1 94/66/1 79/67/1 78/68/1
f 94/25/1 95/26/1 81/27/1 79/28/1
f 95/29/1 96/30/1 82/31/1 81/32/1
f 97/49/1 98/50/1 99/51/1 100/52/1
f 98/53/1 101/54/1 83/55/1 99/56/1
f 102/73/1 103/74/1 87/75/1 84/76/1
f 103/77/1 104/78/1 105/79/1 87/80/1
f 106/57/1 107/58/1 108/59/1 109/60/1
f 107/61/1 110/62/1 88/63/1 108/64/1
f 110/65/1 111/66/1 89/67/1 88/68/1
f 111/69/1 112/70/1 91/71/1 89/72/1
f 112/65/1 113/66/1 92/67/1 91/68/1
f 113/69/1 114/70/1 93/71/1 92/72/1
f 114/57/1 115/58/1 94/59/1 93/60/1
f 115/25/1 116/26/1 95/27/1 94/28/1
f 116/29/1 117/30/1 96/31/1 95/32/1
f 118/81/1 119/82/1 120/83/1 121/84/1
f 119/81/1 122/82/1 123/83/1 120/84/1
f 122/81/1 124/82/1 125/83/1 123/84/1
f 124/81/1 126/82/1 127/83/1 125/84/1
f 126/81/1 128/82/1 129/83/1 127/84/1
f 128/85/1 130/86/1 131/87/1 129/88/1
f 130/89/1 132/90/1 133/91/1 131/92/1
f 132/81/1 134/82/1 135/83/1 133/84/1
f 134/81/1 136/82/1 137/83/1 135/84/1
f 138/65/1 139/66/1 98/67/1 97/68/1
f 139/69/1 140/70/1 101/71/1 98/72/1
f 141/93/1 142/94/1 103/95/1 102/96/1
f 142/97/1 143/98/1 104/99/1 103/100/1
f 143/5/1 144/6/1 106/7/1 104/8/1
f 144/65/1 145/66/1 107/67/1 106/68/1
f 145/69/1 146/70/1 110/71/1 107/72/1
f 147/65/1 148/66/1 115/67/1 114/68/1
f 148/81/1 149/82/1 116/83/1 115/84/1
f 149/81/1 150/82/1 117/83/1 116/84/1
f 151/101/1 152/102/1 130/103/1 128/104/1
f 152/105/1 153/106/1 132/107/1 130/108/1
f 154/109/1 155/110/1 143/111/1 142/112/1
f 155/37/1 156/38/1 144/39/1 143/40/1
f 157/81/1 158/82/1 149/83/1 148/84/1
f 158/81/1 159/82/1 150/83/1 149/84/1
f 160/113/1 161/114/1 152/115/1 151/116/1
f 161/117/1 162/118/1 153/119/1 152/120/1
f 163/109/1 164/110/1 165/111/1 166/112/1
f 164/37/1 167/38/1 168/39/1 165/40/1
f 167/109/1 169/110/1 170/111/1 168/112/1
f 169/37/1 171/38/1 172/39/1 170/40/1
f 173/109/1 174/110/1 175/111/1 176/112/1
f 174/37/1 177/38/1 178/39/1 175/40/1
f 177/109/1 179/110/1 180/111/1 178/112/1
f 181/109/1 182/110/1 183/111/1 184/112/1
f 185/109/1 186/110/1 154/111/1 187/112/1
f 188/109/1 189/110/1 190/111/1 191/112/1
f 192/121/1 193/122/1 158/123/1 157/124/1
f 193/125/1 194/126/1 159/127/1 158/128/1
f 195/129/1 196/130/1 160/131/1 197/132/1
f 196/133/1 198/134/1 161/135/1 160/136/1
f 198/137/1 199/138/1 162/139/1 161/140/1
f 199/141/1 200/142/1 201/143/1 162/144/1
f 202/109/1 203/110/1 189/111/1 188/112/1
f 204/145/1 205/146/1 193/147/1 192/148/1
f 205/149/1 206/150/1 194/151/1 193/152/1
f 207/85/1 208/86/1 209/87/1 210/88/1
f 208/89/1 211/90/1 195/91/1 209/92/1
f 211/153/1 212/154/1 196/155/1 195/156/1
f 212/157/1 213/158/1 198/159/1 196/160/1
f 213/161/1 214/162/1 199/163/1 198/164/1
f 214/165/1 215/166/1 200/167/1 199/168/1
f 216/169/1 217/170/1 218/171/1 219/172/1
f 217/169/1 220/170/1 221/171/1 218/172/1
f 220/169/1 222/170/1 223/171/1 221/172/1
f 222/173/1 224/174/1 225/175/1 223/176/1
f 226/57/1 227/58/1 228/59/1 229/60/1
f 227/61/1 230/62/1 231/63/1 228/64/1
f 230/49/1 232/50/1 233/51/1 231/52/1
f 232/53/1 234/54/1 235/55/1 233/56/1
f 234/49/1 236/50/1 237/51/1 235/52/1
f 236/53/1 238/54/1 239/55/1 237/56/1
f 240/57/1 241/58/1 202/59/1 242/60/1
f 241/61/1 243/62/1 203/63/1 202/64/1
f 244/109/1 245/110/1 204/111/1 246/112/1
f 245/109/1 247/110/1 205/111/1 204/112/1
f 247/109/1 248/110/1 206/111/1 205/112/1
f 249/101/1 250/102/1 208/103/1 207/104/1
f 250/105/1 251/106/1 211/107/1 208/108/1
f 252/177/1 253/178/1 213/179/1 212/180/1
f 253/181/1 254/182/1 214/183/1 213/184/1
f 255/109/1 256/110/1 257/111/1 258/112/1
f 256/109/1 259/110/1 216/111/1 257/112/1
f 259/109/1 260/110/1 217/111/1 216/112/1
f 260/109/1 261/110/1 220/111/1 217/112/1
f 261/109/1 262/110/1 222/111/1 220/112/1
f 262/109/1 263/110/1 224/111/1 222/112/1
f 263/109/1 264/110/1 265/111/1 224/112/1
f 264/109/1 266/110/1 267/111/1 265/112/1
f 266/109/1 268/110/1 226/111/1 267/112/1
f 268/65/1 269/66/1 227/67/1 226/68/1
f 269/185/1 270/186/1 230/187/1 227/188/1
f 270/189/1 271/190/1 232/191/1 230/192/1
f 271/185/1 272/186/1 234/187/1 232/188/1
f 272/189/1 273/190/1 236/191/1 234/192/1
f 273/185/1 274/186/1 238/187/1 236/188/1
f 275/65/1 276/66/1 241/67/1 240/68/1
f 276/69/1 277/70/1 243/71/1 241/72/1
f 278/25/1 279/26/1 247/27/1 245/28/1
f 279/29/1 280/30/1 248/31/1 247/32/1
f 281/193/1 282/194/1 283/195/1 284/196/1
f 282/1/1 285/2/1 249/3/1 283/4/1
f 285/5/1 286/6/1 250/7/1 249/8/1
f 286/197/1 287/198/1 251/199/1 250/200/1
f 288/189/1 289/190/1 275/191/1 274/192/1
f 289/185/1 290/186/1 276/187/1 275/188/1
f 290/109/1 291/110/1 277/111/1 276/112/1
f 292/41/1 293/42/1 279/43/1 278/44/1
f 293/45/1 294/46/1 280/47/1 279/48/1
f 295/41/1 296/42/1 285/43/1 282/44/1
f 296/45/1 297/46/1 286/47/1 285/48/1
f 298/109/1 299/110/1 291/111/1 290/112/1
f 300/41/1 301/42/1 293/43/1 292/44/1
f 301/45/1 302/46/1 294/47/1 293/48/1
f 303/25/1 304/26/1 296/27/1 295/28/1
f 304/29/1 305/30/1 297/31/1 296/32/1
f 306/41/1 307/42/1 301/43/1 300/44/1
f 307/45/1 308/46/1 302/47/1 301/48/1
f 309/89/1 310/90/1 311/91/1 312/92/1
f 313/41/1 314/42/1 304/43/1 303/44/1
f 314/45/1 315/46/1 305/47/1 304/48/1
f 316/41/1 317/42/1 307/43/1 306/44/1
f 317/45/1 318/46/1 308/47/1 307/48/1
f 319/105/1 320/106/1 310/107/1 309/108/1
f 320/49/1 321/50/1 322/51/1 310/52/1
f 321/53/1 323/54/1 324/55/1 322/56/1
f 325/25/1 326/26/1 314/27/1 313/28/1
f 326/29/1 327/30/1 315/31/1 314/32/1
f 328/41/1 329/42/1 317/43/1 316/44/1
f 329/45/1 330/46/1 318/47/1 317/48/1
f 331/109/1 332/110/1 320/111/1 319/112/1
f 332/65/1 333/66/1 321/67/1 320/68/1
f 333/69/1 334/70/1 323/71/1 321/72/1
f 334/57/1 335/58/1 336/59/1 323/60/1
f 335/53/1 337/54/1 338/55/1 336/56/1
f 337/49/1 339/50/1 340/51/1 338/52/1
f 339/61/1 341/62/1 342/63/1 340/64/1
f 341/37/1 343/38/1 325/39/1 342/40/1
f 343/41/1 344/42/1 326/43/1 325/44/1
f 344/45/1 345/46/1 327/47/1 326/48/1
f 346/41/1 347/42/1 329/43/1 328/44/1
f 347/45/1 348/46/1 330/47/1 329/48/1
f 349/65/1 350/66/1 335/67/1 334/68/1
f 350/69/1 351/70/1 337/71/1 335/72/1
f 351/65/1 352/66/1 339/67/1 337/68/1
f 352/69/1 353/70/1 341/71/1 339/72/1
f 353/37/1 354/38/1 343/39/1 341/40/1
f 354/37/1 355/38/1 344/39/1 343/40/1
f 355/37/1 356/38/1 345/39/1 344/40/1
f 356/57/1 357/58/1 358/59/1 345/60/1
f 357/61/1 359/62/1 360/63/1 358/64/1
f 359/201/1 361/202/1 362/203/1 360/204/1
f 361/109/1 363/110/1 364/111/1 362/112/1
f 365/49/1 366/50/1 367/51/1 368/52/1
f 366/53/1 369/54/1 370/55/1 367/56/1
f 371/109/1 372/110/1 373/111/1 374/112/1
f 375/109/1 376/110/1 377/111/1 378/112/1
f 379/109/1 380/110/1 381/111/1 382/112/1
f 383/109/1 384/110/1 347/111/1 346/112/1
f 384/109/1 385/110/1 348/111/1 347/112/1
f 386/81/1 387/82/1 363/83/1 361/84/1
f 387/81/1 388/82/1 365/83/1 363/84/1
f 388/65/1 389/66/1 366/67/1 365/68/1
f 389/69/1 390/70/1 369/71/1 366/72/1
f 391/109/1 392/110/1 393/111/1 394/112/1
f 395/49/1 396/50/1 397/51/1 398/52/1
f 396/109/1 399/110/1 400/111/1 397/112/1
f 399/53/1 401/54/1 402/55/1 400/56/1
f 403/109/1 404/110/1 371/111/1 405/112/1
f 404/109/1 406/110/1 372/111/1 371/112/1
f 406/109/1 407/110/1 408/111/1 372/112/1
f 407/61/1 409/62/1 410/63/1 408/64/1
f 409/53/1 411/54/1 412/55/1 410/56/1
f 411/109/1 413/110/1 375/111/1 412/112/1
f 413/109/1 414/110/1 376/111/1 375/112/1
f 414/109/1 415/110/1 416/111/1 376/112/1
f 417/109/1 418/110/1 379/111/1 419/112/1
f 420/81/1 421/82/1 422/83/1 423/84/1
f 421/81/1 424/82/1 425/83/1 422/84/1
f 424/81/1 426/82/1 427/83/1 425/84/1
f 426/81/1 428/82/1 429/83/1 427/84/1
f 428/81/1 430/82/1 431/83/1 429/84/1
f 430/81/1 432/82/1 433/83/1 431/84/1
f 434/81/1 435/82/1 386/83/1 436/84/1
f 437/189/1 438/190/1 396/191/1 395/192/1
f 439/185/1 440/186/1 401/187/1 399/188/1
f 441/69/1 442/70/1 409/71/1 407/72/1
f 442/185/1 443/186/1 411/187/1 409/188/1
f 444/65/1 445/66/1 446/67/1 415/68/1
f 445/69/1 447/70/1 448/71/1 446/72/1
f 449/169/1 450/170/1 421/171/1 420/172/1
f 450/169/1 451/170/1 424/171/1 421/172/1
f 451/169/1 452/170/1 426/171/1 424/172/1
f 452/169/1 453/170/1 428/171/1 426/172/1
f 453/169/1 454/170/1 430/171/1 428/172/1
f 454/169/1 455/170/1 432/171/1 430/172/1
f 455/169/1 456/170/1 457/171/1 432/172/1
f 456/169/1 458/170/1 459/171/1 457/172/1
f 458/169/1 460/170/1 461/171/1 459/172/1
f 460/169/1 462/170/1 463/171/1 461/172/1
f 462/169/1 464/170/1 465/171/1 463/172/1
f 464/169/1 466/170/1 434/171/1 465/172/1
f 466/169/1 467/170/1 435/171/1 434/172/1
f 467/169/1 468/170/1 469/171/1 435/172/1
f 468/169/1 470/170/1 471/171/1 469/172/1
f 470/169/1 472/170/1 473/171/1 471/172/1
f 472/169/1 474/170/1 475/171/1 473/172/1
f 474/169/1 476/170/1 477/171/1 475/172/1
f 476/169/1 478/170/1 479/171/1 477/172/1
f 478/169/1 480/170/1 437/171/1 479/172/1
f 480/169/1 481/170/1 438/171/1 437/172/1
f 481/169/1 482/170/1 439/171/1 438/172/1
f 482/169/1 483/170/1 440/171/1 439/172/1
f 483/169/1 484/170/1 485/171/1 440/172/1
f 484/169/1 486/170/1 487/171/1 485/172/1
f 486/169/1 488/170/1 489/171/1 487/172/1
f 488/169/1 490/170/1 441/171/1 489/172/1
f 490/169/1 491/170/1 442/171/1 441/172/1
f 491/169/1 492/170/1 443/171/1 442/172/1
f 492/169/1 493/170/1 494/171/1 443/172/1
f 493/169/1 495/170/1 496/171/1 494/172/1
f 495/169/1 497/170/1 444/171/1 496/172/1
f 497/169/1 498/170/1 445/171/1 444/172/1
f 498/169/1 499/170/1 447/171/1 445/172/1
f 499/169/1 500/170/1 501/171/1 447/172/1
f 500/169/1 502/170/1 503/171/1 501/172/1
f 502/169/1 504/170/1 505/171/1 503/172/1
f 504/169/1 506/170/1 507/171/1 505/172/1
f 506/169/1 508/170/1 509/171/1 507/172/1
f 508/173/1 510/174/1 511/175/1 509/176/1

